# xmcd CD database file
#
# Track frame offsets:
#	150
#	14414
#	27944
#	46062
#	58271
#	73514
#	88917
#	101651
#	121404
#	138651
#	158401
#	179162
#	198628
#	214173
#	228800
#	247883
#	265640
#	279993
#	298187
#
# Disc length: 4239 seconds
#
# Revision: 1
# Processed by: cddbd v1.5.2PL0 Copyright (c) Steve Scherf et al.
# Submitted via: CDex 1.51
#
DISCID=18108d13
DTITLE=CARLOS VIANA - Rasgando a Madrugada
DYEAR=2009
DGENRE=Country
TTITLE0=01 Rasgando a Madrugada
TTITLE1=02 Cantando a Saudade
TTITLE2=03 Que Pena
TTITLE3=04 Misturei Forro com Funk
TTITLE4=05 Se Não For Amor
TTITLE5=06 Pensando em Você
TTITLE6=07 Relembrando Minha Terra
TTITLE7=08 To Indo Pescar
TTITLE8=09 Eu Quero Ouvir
TTITLE9=10 Mamãe Querida
TTITLE10=11 Ta na Cara
TTITLE11=12 Crianca Esperança
TTITLE12=13 Ele Não Ta Nem Ai
TTITLE13=14 Sem Medo de Ser Feliz
TTITLE14=15 Faço Tudo
TTITLE15=16 É Por Isso Que Eu Canto
TTITLE16=17 Chovendo Mulher
TTITLE17=18 Sem Voce Não Sei Viver
TTITLE18=19 E A Galera Pede Mais
EXTD=YEAR: 2009
EXTT0=
EXTT1=
EXTT2=
EXTT3=
EXTT4=
EXTT5=
EXTT6=
EXTT7=
EXTT8=
EXTT9=
EXTT10=
EXTT11=
EXTT12=
EXTT13=
EXTT14=
EXTT15=
EXTT16=
EXTT17=
EXTT18=
PLAYORDER=
